<svg width="28" height="28" viewBox="0 0 28 28" fill="none" xmlns="http://www.w3.org/2000/svg">
<path d="M27.9235 8.23141C27.8579 6.74361 27.6173 5.72076 27.2727 4.83444C26.9171 3.89364 26.3701 3.05134 25.6535 2.35113C24.9533 1.64003 24.1055 1.08747 23.1756 0.737477C22.2842 0.392823 21.2667 0.152227 19.779 0.0866293C18.2801 0.0154762 17.8043 -0.000976562 14.0028 -0.000976562C10.2012 -0.000976562 9.7254 0.0154762 8.23209 0.0810738C6.74434 0.146671 5.72153 0.387481 4.83546 0.731921C3.89448 1.08747 3.05221 1.63448 2.35203 2.35113C1.64095 3.05134 1.08862 3.89919 0.738427 4.8291C0.393785 5.72076 0.153198 6.73805 0.0876027 8.22586C0.0164522 9.72477 0 10.2006 0 14.0023C0 17.804 0.0164522 18.2798 0.0820474 19.7732C0.147643 21.261 0.388443 22.2838 0.733085 23.1701C1.08862 24.1109 1.64095 24.9532 2.35203 25.6534C3.05221 26.3645 3.90003 26.9171 4.8299 27.2671C5.72153 27.6118 6.73879 27.8524 8.22675 27.9179C9.71984 27.9838 10.1959 28 13.9974 28C17.799 28 18.2748 27.9838 19.7681 27.9179C21.2558 27.8524 22.2787 27.6118 23.1647 27.2671C25.0465 26.5395 26.5342 25.0517 27.2618 23.1701C27.6062 22.2785 27.847 21.261 27.9126 19.7732C27.9782 18.2798 27.9946 17.804 27.9946 14.0023C27.9946 10.2006 27.9891 9.72477 27.9235 8.23141ZM25.402 19.6638C25.3418 21.0313 25.1121 21.7697 24.9206 22.262C24.4501 23.4819 23.482 24.45 22.2622 24.9205C21.7699 25.112 21.0262 25.3417 19.664 25.4017C18.1872 25.4676 17.7443 25.4838 14.0083 25.4838C10.2724 25.4838 9.8239 25.4676 8.35239 25.4017C6.98493 25.3417 6.2465 25.112 5.75422 24.9205C5.14719 24.6962 4.59466 24.3406 4.14617 23.8757C3.68124 23.4216 3.3257 22.8746 3.10135 22.2676C2.90991 21.7753 2.68022 21.0313 2.62018 19.6693C2.55437 18.1924 2.53813 17.7493 2.53813 14.0132C2.53813 10.2771 2.55437 9.82862 2.62018 8.35727C2.68022 6.98976 2.90991 6.25131 3.10135 5.759C3.3257 5.15175 3.68124 4.5994 4.15173 4.15069C4.60555 3.68574 5.15254 3.33018 5.75977 3.10604C6.25206 2.91459 6.99604 2.68489 8.35794 2.62464C9.8348 2.55904 10.2779 2.54259 14.0137 2.54259C17.7552 2.54259 18.1981 2.55904 19.6696 2.62464C21.037 2.68489 21.7755 2.91459 22.2678 3.10604C22.8748 3.33018 23.4273 3.68574 23.8758 4.15069C24.3407 4.60474 24.6963 5.15175 24.9206 5.759C25.1121 6.25131 25.3418 6.9951 25.402 8.35727C25.4676 9.83417 25.4841 10.2771 25.4841 14.0132C25.4841 17.7493 25.4676 18.1869 25.402 19.6638Z" fill="white"/>
<path d="M14.0029 6.80933C10.0319 6.80933 6.81006 10.0312 6.81006 14.0026C6.81006 17.974 10.0319 21.1958 14.0029 21.1958C17.9741 21.1958 21.1958 17.974 21.1958 14.0026C21.1958 10.0312 17.9741 6.80933 14.0029 6.80933ZM14.0029 18.6686C11.4268 18.6686 9.33709 16.5791 9.33709 14.0026C9.33709 11.426 11.4268 9.33649 14.0029 9.33649C16.5793 9.33649 18.6688 11.426 18.6688 14.0026C18.6688 16.5791 16.5793 18.6686 14.0029 18.6686Z" fill="white"/>
<path d="M23.1594 6.53821C23.1594 7.4726 22.4075 8.23022 21.48 8.23022C20.5527 8.23022 19.8008 7.4726 19.8008 6.53821C19.8008 5.60361 20.5527 4.84619 21.48 4.84619C22.4075 4.84619 23.1594 5.60361 23.1594 6.53821Z" fill="white"/>
</svg>
