<svg width="1042" height="157" viewBox="0 0 1042 157" fill="none" xmlns="http://www.w3.org/2000/svg">
<g clip-path="url(#clip0)" filter="url(#filter0_d)">
<path d="M110.36 24.26L110.42 24.33C110.49 24.39 110.62 24.46 110.68 24.52C110.99 24.71 111.25 24.91 111.57 25.15C112.53 25.99 113.29 26.85 113.85 27.93C115.69 31.26 115.43 35.31 113.09 40.03V40.1L80.72 105.72L48.42 40.23L48.32 40.03C47.04 37.45 46.41 34.99 46.41 32.79C46.41 31.03 46.78 29.39 47.6 27.93C48.55 26.22 49.7 25.04 51.05 24.26H21C22.47 24.52 23.99 25.21 25.44 26.35C26.72 27.3 27.74 28.57 28.5 30.02C29.45 31.85 29.89 33.98 29.89 36.46V115.11C29.89 119.59 28.44 122.93 25.44 125.21C23.99 126.34 22.47 127.05 21 127.28H51.05C49.57 127.05 48.06 126.34 46.58 125.21C43.7 122.93 42.22 119.59 42.22 115.11V56.64L80.75 133.1L119.25 56.64V115.11C119.25 119.59 117.79 122.93 114.8 125.21C113.35 126.34 111.81 127.05 110.36 127.28H140.36C138.89 127.05 137.37 126.34 135.92 125.21C132.93 122.93 131.47 119.59 131.47 115.11V36.46C131.47 31.98 132.93 28.61 135.92 26.35C137.37 25.21 138.89 24.52 140.36 24.26H110.36Z" fill="white"/>
<path d="M225.62 24.26C227.1 24.52 228.61 25.21 230.07 26.33C231.35 27.34 232.36 28.55 233.12 29.99C234.08 31.82 234.51 33.98 234.51 36.44V115.07C234.51 119.55 233.06 122.95 230.07 125.15C228.61 126.29 227.1 126.98 225.62 127.24H304.6V106.15C304.34 107.62 303.64 109.12 302.49 110.57C301.56 111.9 300.28 112.91 298.83 113.6C296.99 114.55 294.82 115 292.35 115H247.26V87.45C247.5 86.7 247.82 85.94 248.28 85.23C248.84 84.28 249.6 83.4 250.42 82.71C252.79 80.69 255.82 79.67 259.64 79.67H283.96C287.71 79.67 290.64 78.6 292.85 76.4C294.56 74.63 295.71 72.22 296.4 69.14C297.16 65.67 297.23 62.16 296.66 58.63C296.14 60.07 295.21 61.58 293.8 63.04C290.94 65.99 287.19 67.44 282.57 67.44H259.64C255.82 67.44 252.79 68.12 250.42 69.5C249.6 70.02 248.84 70.58 248.28 71.29C247.82 71.72 247.5 72.22 247.26 72.74V36.5H291.59C296.1 36.5 299.46 37.94 301.74 40.89C302.88 42.36 303.58 43.87 303.77 45.31V24.26H225.62ZM989.83 75.82C981.11 55.8 975.46 42.68 972.72 36.44C970.84 31.98 970.84 28.61 972.79 26.35C973.81 25.21 975.02 24.52 976.34 24.26H949.12C950.44 24.52 951.65 25.21 952.67 26.35C954.62 28.61 954.62 31.98 952.74 36.44C949.94 42.81 944.22 55.93 935.63 75.82C927.07 95.55 921.41 108.61 918.61 115.11C916.66 119.59 913.74 123 909.79 125.19C907.82 126.34 906.04 127.03 904.46 127.28H936.02C934.7 127.03 933.48 126.34 932.53 125.26C931.71 124.31 931.19 123.06 931.08 121.6C930.88 119.83 931.32 117.76 932.34 115.31C933.29 113.71 934.57 112.46 936.15 111.51C938.25 110.31 940.79 109.68 943.76 109.68H968.11C971.84 109.68 974.76 108.61 976.93 106.41C978.64 104.64 979.86 102.23 980.55 99.15C981.31 95.68 981.37 92.15 980.74 88.61C980.29 90.06 979.34 91.59 977.88 93.03C976.67 94.34 975.22 95.36 973.57 96.05C971.53 96.99 969.23 97.45 966.63 97.45H943.76C942.44 97.45 941.16 97.51 939.97 97.7C940.53 96.37 941.05 95.29 941.35 94.54L942.76 91.26C943.83 88.81 944.84 86.52 945.73 84.46C948.03 79.22 950.07 74.48 951.85 70.39C956.53 59.53 960.15 51.15 962.75 45.2C966.13 52.98 971.66 65.78 979.34 83.51C980.48 86.09 981.94 89.43 983.65 93.46L984.67 95.81L985.62 98.07C986.38 99.77 987.03 101.24 987.53 102.42C990.26 108.67 992.1 112.89 993.06 115.11C994.97 119.59 994.97 123 992.99 125.19C991.97 126.34 990.76 127.03 989.44 127.28H1021C1019.42 127.03 1017.64 126.34 1015.67 125.19C1013.96 124.25 1012.37 123 1011.03 121.53C1009.32 119.7 1007.91 117.57 1006.85 115.11C1003.98 108.5 998.26 95.36 989.83 75.82ZM783.5 55.1C780.38 52.06 779.06 48.79 779.36 45.3C779.69 41.96 781.4 39.24 784.52 37.28C789.79 34.07 795.75 33.06 802.56 34.26C804.77 34.63 806.94 35.28 809.17 36.16C809.87 36.46 810.56 36.72 811.25 37.04L812.01 37.41L812.27 37.54L812.47 37.6C814.81 39.31 816.22 41.46 816.72 44.05C816.91 44.99 816.91 45.94 816.85 46.76C816.78 47.45 816.59 47.94 816.39 48.14L819.97 44.8L829.03 36.16L833.43 32.05C833.37 32.11 833.3 32.11 833.11 32.11C832.91 32.18 832.72 32.18 832.41 32.18C831.72 32.18 830.76 32.05 829.68 31.79C826.56 30.97 822.7 29.33 818.06 26.75C817.8 26.68 817.24 26.49 816.39 26.06L815.76 25.8L815.13 25.48C814.57 25.24 814.05 24.98 813.55 24.79C810.56 23.6 807.63 22.72 804.77 22.14C795.58 20.43 786.43 22.14 777.35 27.37C771.13 31.68 767.68 37.22 767.12 44.11C766.73 47.71 767.25 51.31 768.7 54.9C770.17 58.37 772.19 61.35 774.81 63.8C779.06 67.66 787 72.07 798.74 76.99C810.5 81.92 817.54 86.34 819.9 90.24C821.98 93.7 822.5 97.5 821.49 101.67C820.53 105.57 818.43 108.98 815.2 111.89C811.84 114.86 808.09 116.56 803.95 116.88C796.77 118.33 790.29 117.77 784.65 115.18C782.68 114.23 780.9 113.16 779.32 111.82C778.74 111.33 778.17 110.81 777.65 110.31C777.28 109.93 776.96 109.56 776.65 109.24C773.92 106.16 772.19 103.44 771.63 101.09C771.36 100.27 771.3 99.52 771.36 98.83C771.43 98.31 771.63 97.95 771.82 97.75L768.76 100.14L759.05 107.66L756.39 109.75L756.52 109.69H756.65H757.14C757.71 109.75 758.42 109.99 759.12 110.31C761.46 111.46 764.39 113.91 767.81 117.7L768.4 118.26L768.76 118.65L769.22 119.08C769.98 119.83 770.74 120.55 771.43 121.17C773.79 123.13 776.39 124.77 779.26 126.21C787.45 129.94 796.51 130.82 806.61 128.86C812.53 127.68 817.93 125.14 822.74 121.43C828.6 116.82 832.22 111.2 833.6 104.56C834.56 101.09 834.75 97.43 834.19 93.66C833.56 89.42 832.02 85.82 829.62 82.87C825.3 77.44 817.17 72.14 805.29 66.88C793.41 61.65 786.17 57.68 783.5 55.1ZM657.68 82.56C657.68 92.66 654.45 101.13 648.04 108.02C641.36 115.09 632.99 118.62 622.76 118.62C612.52 118.62 604.09 115.09 597.48 108.02C591.06 101.13 587.83 92.66 587.83 82.56V36.39C587.83 33.94 588.33 31.85 589.29 30.02C590.04 28.57 591.13 27.3 592.47 26.29C593.99 25.15 595.51 24.46 597.09 24.26H566.54C568.06 24.46 569.58 25.15 571.18 26.29C572.51 27.3 573.59 28.57 574.35 30.02C575.3 31.85 575.8 33.94 575.8 36.39C575.8 37.4 575.8 52.83 575.87 82.56C575.87 95.83 580.25 107.01 588.96 116.1C597.91 125.34 609.23 130 622.76 130C636.29 130 647.54 125.34 656.49 116.1C665.27 107.01 669.65 95.83 669.65 82.56V35.9C669.71 33.55 670.21 31.54 671.17 29.76C671.99 28.38 673.01 27.17 674.33 26.22C675.81 25.15 677.32 24.46 678.8 24.26H648.43C649.94 24.46 651.46 25.15 653 26.29C654.32 27.3 655.41 28.57 656.16 30.02C657.12 31.85 657.62 33.94 657.62 36.39C657.62 37.4 657.62 52.83 657.68 82.56ZM450.12 25.57C445.42 24.56 441.36 24.13 437.85 24.3H420.4H420.51H390.35C391.81 24.49 393.32 25.18 394.8 26.33C396.12 27.34 397.14 28.61 397.83 30.05C398.79 31.88 399.24 34.04 399.24 36.49V112.61C399.24 117.09 397.77 120.97 394.8 124.18C393.32 125.75 391.81 126.93 390.35 127.62C393.91 127.69 397.46 127.13 400.95 125.92C408 123.49 411.55 119.09 411.55 112.61V36.49L411.62 35.81H438.18H438.37H438.93C439.58 35.81 440.21 35.81 440.91 35.87C443.21 35.98 445.48 36.3 447.78 36.75C455.02 38.32 460.92 41.3 465.49 45.65C472.73 52.48 476.35 62.58 476.35 76.03V76.29V76.91C476.29 77.66 476.29 78.44 476.24 79.26C476.05 81.84 475.59 84.43 475.03 87.01C473.19 95.18 469.83 101.68 464.99 106.53C460.98 110.58 455.08 113.23 447.26 114.57C444.72 115 441.36 115.39 437.22 115.69L432.28 116.01L427.51 116.44C422.05 117.09 417.71 119.03 414.55 122.24C410.93 125.92 409.58 130.68 410.53 136.5V136.43C411.75 133.18 415.04 130.75 420.51 129.07C422.61 128.44 424.97 128.01 427.44 127.69C429.59 127.39 431.63 127.26 433.54 127.32C451.46 127.43 464.73 123.16 473.32 114.5C479.54 108.17 483.85 99.96 486.22 89.86C486.97 86.65 487.47 83.42 487.73 80.21C487.8 79.13 487.86 78.18 487.93 77.23V76.35V75.9C487.93 59.22 483.09 46.34 473.38 37.18C467.2 31.43 459.46 27.53 450.12 25.57Z" fill="white"/>
</g>
<defs>
<filter id="filter0_d" x="0" y="0" width="1042" height="157" filterUnits="userSpaceOnUse" color-interpolation-filters="sRGB">
<feFlood flood-opacity="0" result="BackgroundImageFix"/>
<feColorMatrix in="SourceAlpha" type="matrix" values="0 0 0 0 0 0 0 0 0 0 0 0 0 0 0 0 0 0 127 0"/>
<feOffset/>
<feGaussianBlur stdDeviation="10.5"/>
<feColorMatrix type="matrix" values="0 0 0 0 0.110202 0 0 0 0 0.0625695 0 0 0 0 0.220833 0 0 0 0.24 0"/>
<feBlend mode="normal" in2="BackgroundImageFix" result="effect1_dropShadow"/>
<feBlend mode="normal" in="SourceGraphic" in2="effect1_dropShadow" result="shape"/>
</filter>
<clipPath id="clip0">
<rect width="1000" height="115" fill="white" transform="translate(21 21)"/>
</clipPath>
</defs>
</svg>
