<svg width="26" height="28" viewBox="0 0 26 28" fill="none" xmlns="http://www.w3.org/2000/svg">
<path d="M25.382 16.2092C26.2166 9.18365 24.981 4.74824 22.7523 2.74211L22.7535 2.74094C19.1563 -0.684987 7.00804 -1.19206 2.70451 2.89481C0.771881 4.89395 0.0911488 7.82797 0.0165481 11.4602C-0.0580527 15.0936 -0.146641 21.9 6.19559 23.7465H6.20142L6.19559 26.5663C6.19559 26.5663 6.15246 27.7086 6.88215 27.9383C7.71674 28.2087 8.09441 27.6783 10.6903 24.5776C15.0311 24.9541 18.3648 24.0915 18.7437 23.9656C19.6202 23.6719 24.58 23.0156 25.382 16.2092ZM11.1181 22.5936C11.1181 22.5936 8.37067 26.0196 7.51625 26.909C7.2365 27.1981 6.92994 27.1712 6.9346 26.5977C6.9346 26.2212 6.95558 21.9164 6.95558 21.9164C1.5785 20.3753 1.89555 14.5796 1.95384 11.5477C2.01212 8.51455 2.56696 6.03049 4.20352 4.35774C7.97901 0.817573 18.6294 1.60907 21.343 4.15957C24.6604 7.10058 23.4796 15.4095 23.4866 15.6928C22.8047 21.3743 18.7856 21.7345 18.0466 21.9805C17.7307 22.0854 14.7992 22.8396 11.1181 22.5936Z" fill="white"/>
<path d="M12.6381 5.02271C12.1893 5.02271 12.1893 5.7221 12.6381 5.72792C16.1198 5.75473 18.9873 8.18162 19.0188 12.6332C19.0188 13.103 19.7065 13.0972 19.7006 12.6274H19.6995C19.6622 7.83076 16.5313 5.04952 12.6381 5.02271Z" fill="white"/>
<path d="M17.2179 11.8974C17.2074 12.3614 17.894 12.3835 17.8998 11.9137C17.9569 9.26878 16.3261 7.09011 13.2616 6.86047C12.8128 6.82783 12.7662 7.53308 13.2138 7.56571C15.8715 7.76738 17.2715 9.58119 17.2179 11.8974Z" fill="white"/>
<path d="M16.4836 14.9066C15.9078 14.5732 15.3215 14.7807 15.079 15.1083L14.572 15.7645C14.3144 16.0979 13.833 16.0536 13.833 16.0536C10.3197 15.1246 9.38022 11.4481 9.38022 11.4481C9.38022 11.4481 9.33709 10.9503 9.65881 10.6834L10.2929 10.1589C10.61 9.90708 10.8105 9.30094 10.4876 8.70529C9.62501 7.1468 9.04568 6.60943 8.75078 6.19679C8.44072 5.80862 7.97446 5.7212 7.48955 5.98347H7.47906C6.47079 6.57329 5.36693 7.67717 5.72011 8.81369C6.32275 10.012 7.43011 13.8319 10.9597 16.718C12.6184 18.083 15.2434 19.4818 16.3577 19.8047L16.3682 19.821C17.4663 20.187 18.534 19.04 19.104 18.0014V17.9933C19.3569 17.4909 19.273 17.0153 18.9035 16.7041C18.2484 16.0653 17.2599 15.36 16.4836 14.9066Z" fill="white"/>
<path d="M13.742 9.46893C14.8621 9.53472 15.4053 10.1246 15.4636 11.3359C15.4846 11.8094 16.1665 11.7765 16.1455 11.303C16.0709 9.72154 15.2526 8.84032 13.7793 8.75808C13.3305 8.73105 13.2885 9.4419 13.742 9.46893Z" fill="white"/>
</svg>
