<svg width="28" height="28" viewBox="0 0 28 28" fill="none" xmlns="http://www.w3.org/2000/svg">
<path fill-rule="evenodd" clip-rule="evenodd" d="M23.8059 4.06826C21.1864 1.44556 17.7027 0.000561575 13.9913 -0.000976562C6.34357 -0.000976562 0.119458 6.22319 0.116382 13.8732C0.115356 16.3187 0.754174 18.7059 1.9684 20.8101L0 28L7.35529 26.0705C9.38197 27.1761 11.6636 27.7587 13.9856 27.7594H13.9914C21.6383 27.7594 27.8631 21.5347 27.866 13.8843C27.8675 10.1767 26.4256 6.69079 23.8059 4.06826ZM13.9913 25.4161H13.9865C11.9172 25.4152 9.88783 24.8591 8.11698 23.8086L7.69606 23.5585L3.33132 24.7036L4.49633 20.4479L4.22204 20.0116C3.06762 18.1754 2.45803 16.0531 2.45905 13.8741C2.46145 7.51557 7.63487 2.34246 13.9959 2.34246C17.0761 2.34349 19.9717 3.54461 22.1489 5.72449C24.3262 7.90438 25.5245 10.8019 25.5235 13.8835C25.5207 20.2425 20.3476 25.4161 13.9913 25.4161ZM20.3169 16.7788C19.9703 16.6051 18.2658 15.7667 17.9479 15.6508C17.6304 15.5351 17.399 15.4775 17.1681 15.8244C16.9369 16.1714 16.2726 16.9524 16.0702 17.1836C15.8679 17.415 15.6659 17.4441 15.3191 17.2705C14.9724 17.097 13.8554 16.7307 12.5311 15.5496C11.5006 14.6303 10.8049 13.495 10.6025 13.1481C10.4005 12.8008 10.6008 12.6313 10.7546 12.4405C11.1299 11.9745 11.5057 11.4859 11.6212 11.2546C11.7369 11.0232 11.679 10.8207 11.5922 10.6472C11.5057 10.4738 10.8124 8.76727 10.5236 8.07289C10.2419 7.39713 9.95636 7.4884 9.74342 7.4778C9.54141 7.46772 9.31019 7.46567 9.07896 7.46567C8.84791 7.46567 8.47228 7.55231 8.1544 7.89959C7.83671 8.2467 6.9412 9.08533 6.9412 10.7918C6.9412 12.4983 8.18346 14.1468 8.35675 14.3782C8.53004 14.6096 10.8014 18.1115 14.2791 19.613C15.1062 19.9706 15.7519 20.1837 16.2555 20.3435C17.0861 20.6074 17.8416 20.5701 18.4391 20.4809C19.1052 20.3813 20.49 19.6421 20.7792 18.8323C21.068 18.0224 21.068 17.3284 20.9812 17.1836C20.8947 17.039 20.6635 16.9524 20.3169 16.7788Z" fill="white"/>
</svg>
