<?xml version="1.0" standalone="no"?>
<!DOCTYPE svg PUBLIC "-//W3C//DTD SVG 20010904//EN"
 "http://www.w3.org/TR/2001/REC-SVG-20010904/DTD/svg10.dtd">
<svg version="1.0" xmlns="http://www.w3.org/2000/svg"
 width="541.000000pt" height="541.000000pt" viewBox="0 0 541.000000 541.000000"
 preserveAspectRatio="xMidYMid meet">
<metadata>
Created by potrace 1.14, written by Peter Selinger 2001-2017
</metadata>
<g transform="translate(0.000000,541.000000) scale(0.100000,-0.100000)"
fill="#000000" stroke="none">
<path d="M2032 5308 c-50 -25 -107 -65 -142 -98 -33 -31 -78 -65 -101 -75 -39
-18 -43 -18 -68 -2 -73 46 -87 46 -94 -3 -3 -18 -11 -26 -30 -28 -18 -2 -27 1
-27 11 0 38 -106 11 -129 -32 -18 -33 13 -41 125 -35 55 3 153 7 219 8 123 3
200 18 280 57 59 29 119 35 150 15 30 -19 76 -108 101 -192 35 -119 14 -199
-62 -241 -57 -32 -122 -42 -324 -48 -78 -3 -154 -7 -169 -9 -14 -3 -44 -7 -66
-11 -75 -10 -90 -15 -152 -45 -126 -62 -195 -203 -188 -385 2 -49 6 -99 8
-110 54 -221 215 -400 342 -380 56 8 82 29 157 128 85 113 107 136 155 158
110 50 239 21 454 -103 81 -47 96 -48 73 -8 -31 52 -217 233 -246 239 -4 1
-32 13 -62 26 -103 46 -189 36 -329 -38 -51 -27 -77 -35 -110 -33 -109 6 -197
140 -150 229 46 90 160 133 398 152 237 18 297 38 387 130 70 70 120 202 120
315 1 119 -28 200 -106 296 -76 94 -163 143 -266 150 -61 4 -70 2 -148 -38z"/>
<path d="M3155 5338 c-134 -44 -255 -167 -297 -302 -18 -58 -24 -154 -14 -206
27 -129 120 -270 206 -315 60 -31 162 -51 300 -60 90 -5 166 -16 210 -29 166
-49 234 -143 182 -251 -46 -96 -141 -127 -235 -79 -108 56 -126 64 -163 72
-137 30 -310 -61 -453 -238 -20 -25 -39 -46 -43 -48 -14 -6 -8 -32 6 -32 8 0
34 13 58 29 41 27 135 76 188 99 95 40 210 48 269 18 49 -26 99 -74 157 -153
83 -112 122 -143 181 -143 46 0 131 51 188 112 47 50 102 141 109 180 1 7 8
31 14 53 41 150 25 317 -39 422 -42 67 -139 137 -209 149 -14 3 -31 7 -39 9
-7 3 -75 8 -150 10 -194 8 -292 14 -321 20 -14 3 -35 7 -47 9 -38 8 -100 47
-124 79 -40 54 -31 153 26 295 9 23 21 42 26 42 5 0 9 7 9 15 0 21 50 43 90
40 20 -2 74 -18 120 -35 115 -43 110 -42 245 -45 66 -2 156 -6 201 -10 80 -8
154 5 154 25 0 16 -44 50 -75 59 -31 8 -65 -2 -65 -19 0 -14 -36 -12 -48 3
-11 13 -12 17 -12 42 0 9 -9 15 -25 15 -14 0 -25 -4 -25 -9 0 -5 -16 -16 -36
-26 -34 -16 -39 -16 -73 0 -20 9 -56 35 -81 57 -147 134 -263 180 -365 146z"/>
<path d="M1161 4798 c-14 -40 -14 -122 1 -224 10 -67 9 -90 -2 -126 -35 -111
-73 -152 -146 -156 -36 -2 -86 41 -140 120 -74 107 -210 117 -295 21 -26 -31
-104 -173 -94 -173 2 0 -2 -17 -9 -37 -12 -35 -14 -208 -3 -273 12 -74 71
-202 114 -244 15 -15 41 -28 67 -31 43 -7 63 -5 165 15 165 31 228 -11 333
-225 29 -60 63 -121 73 -134 70 -87 146 -131 229 -134 109 -3 173 25 239 105
41 50 117 177 117 195 0 8 -25 0 -67 -21 -191 -95 -303 -95 -382 0 -20 25 -43
77 -67 153 -63 201 -95 235 -218 235 -39 0 -89 -4 -111 -9 -77 -16 -138 -10
-195 21 -94 51 -134 129 -134 260 0 68 4 90 28 137 27 56 47 74 88 82 29 6 54
-9 124 -74 80 -75 148 -94 224 -63 35 15 100 81 100 103 0 10 4 20 8 23 4 2 7
43 7 91 l-1 86 39 39 c42 44 44 63 6 68 -48 7 -59 34 -27 66 28 27 3 102 -41
126 -16 8 -21 5 -30 -22z"/>
<path d="M4176 4801 c-26 -29 -32 -88 -11 -111 24 -27 15 -52 -23 -62 -41 -11
-41 -32 0 -70 32 -30 33 -33 34 -117 2 -108 3 -112 42 -160 36 -45 104 -81
153 -81 45 0 130 50 170 100 61 75 130 74 179 -5 62 -101 58 -249 -10 -343
-60 -83 -150 -119 -255 -101 -27 4 -82 11 -121 15 -123 11 -162 -26 -223 -214
-43 -134 -65 -177 -108 -208 -81 -60 -178 -54 -324 17 -44 22 -84 39 -90 39
-16 0 57 -131 109 -195 63 -79 122 -108 216 -108 143 0 234 74 335 276 95 191
152 237 280 222 24 -2 51 -7 60 -9 9 -3 50 -8 91 -11 91 -6 124 10 171 82 52
83 73 172 73 308 1 119 -2 143 -25 213 -54 169 -179 257 -292 208 -34 -15 -97
-71 -97 -86 0 -21 -73 -89 -106 -100 -66 -22 -111 6 -152 93 -25 53 -31 130
-17 212 10 61 10 128 1 178 -8 42 -32 49 -60 18z"/>
<path d="M2711 4354 c-28 -8 -66 -21 -84 -30 -44 -23 -157 -97 -185 -122 l-23
-20 48 -28 c27 -15 73 -53 104 -85 35 -35 61 -54 68 -49 7 4 19 33 27 66 19
72 72 146 127 178 37 22 98 37 164 40 39 3 35 13 -12 35 -57 27 -161 33 -234
15z"/>
<path d="M4530 4113 c-99 -71 -210 -86 -328 -44 -35 13 -65 21 -67 19 -11 -11
-32 -127 -25 -138 6 -9 16 -10 41 -1 55 17 119 20 194 7 120 -20 165 -13 209
33 33 34 46 106 24 133 -12 15 -16 15 -48 -9z"/>
<path d="M809 4118 c-7 -55 27 -140 62 -158 25 -14 91 -15 179 -5 105 12 122
12 173 -2 56 -16 69 -11 64 25 -8 49 -28 112 -35 112 -4 0 -32 -10 -62 -21
-37 -15 -79 -22 -130 -23 -70 -1 -80 2 -152 42 -82 45 -97 49 -99 30z"/>
<path d="M2983 3784 c-24 -6 -63 -26 -86 -43 -190 -144 -237 -151 -375 -57
-69 48 -163 101 -169 97 -2 0 -4 -1 -5 0 -21 7 -105 3 -145 -7 -124 -32 -252
-154 -298 -285 -25 -71 -34 -162 -21 -224 3 -11 5 -30 5 -42 1 -27 23 -30 72
-9 46 19 98 13 199 -23 47 -16 121 -36 165 -45 106 -20 139 -31 180 -56 40
-25 55 -47 52 -78 -2 -25 -23 -28 -51 -7 -35 27 -49 19 -29 -15 9 -16 21 -30
26 -30 4 0 15 -16 23 -35 12 -31 12 -39 -2 -75 -16 -40 -17 -40 -40 -25 -26
17 -42 15 -125 -14 -110 -39 -210 -26 -300 41 -26 19 -46 26 -85 27 -20 1 -23
14 -15 52 3 17 43 50 91 76 30 17 55 36 55 44 0 8 -20 24 -45 37 -37 19 -56
22 -102 18 -88 -8 -118 -32 -135 -106 -9 -43 -10 -226 -1 -260 4 -14 16 -59
27 -100 49 -187 165 -502 190 -520 4 -3 12 -12 17 -22 5 -9 48 -57 96 -106 54
-56 98 -112 117 -151 17 -33 31 -64 30 -67 0 -4 3 -10 8 -13 5 -3 17 -26 28
-50 30 -68 90 -124 160 -146 49 -16 87 -20 215 -19 85 0 168 4 184 8 82 20
132 67 189 178 76 147 114 203 189 275 93 89 93 90 120 146 22 45 94 244 103
287 2 8 4 15 5 15 1 0 3 7 5 15 2 8 16 60 30 115 15 55 28 111 30 125 2 14 7
43 11 65 9 52 8 202 -1 239 -17 64 -74 98 -151 92 -44 -4 -116 -35 -121 -52
-2 -7 20 -25 50 -42 60 -34 110 -86 105 -110 -2 -9 -19 -19 -39 -24 -21 -4
-57 -21 -82 -38 -25 -16 -59 -33 -76 -36 -17 -4 -33 -10 -36 -14 -9 -14 -113
0 -189 24 -63 21 -81 23 -102 14 -33 -15 -54 5 -56 55 -1 28 7 46 35 81 21 24
37 46 37 49 0 8 -35 2 -59 -12 -53 -29 -51 43 3 83 31 24 76 41 131 51 17 2
41 7 55 10 14 2 39 7 55 11 17 3 64 16 107 30 96 30 150 32 210 8 35 -13 51
-15 59 -7 17 17 23 157 9 210 -16 61 -72 169 -108 208 -40 46 -140 120 -197
148 -80 39 -158 50 -232 31z m-308 -1438 c25 -13 32 -13 56 -1 44 23 92 25
138 5 22 -11 41 -26 41 -34 0 -19 -129 -82 -185 -91 -45 -8 -112 14 -192 61
l-48 28 59 27 c60 28 84 29 131 5z m222 -289 c37 -14 81 -28 96 -32 24 -5 27
-8 17 -20 -7 -8 -20 -15 -29 -15 -9 0 -21 -4 -26 -9 -25 -23 -292 -34 -415
-17 -107 15 -119 18 -131 32 -15 18 -11 22 28 28 17 3 57 18 90 33 54 26 67
28 180 27 106 0 130 -4 190 -27z m-351 -168 c81 -28 178 -31 278 -7 148 35
137 35 125 -1 -22 -62 -115 -98 -247 -95 -140 2 -234 40 -240 97 -4 33 5 34
84 6z"/>
<path d="M264 3560 c-71 -28 -122 -81 -179 -185 -16 -27 -41 -65 -56 -83 -16
-18 -29 -37 -29 -42 0 -12 35 -31 43 -24 3 3 10 -3 16 -14 8 -16 6 -25 -9 -45
-24 -30 -25 -53 -5 -100 19 -45 40 -53 61 -22 12 19 17 56 20 157 1 79 8 141
15 155 28 51 162 87 245 64 53 -14 108 -57 129 -101 24 -49 30 -128 15 -191
-18 -74 -15 -214 6 -288 28 -102 95 -180 191 -223 36 -17 71 -23 143 -25 127
-3 163 6 309 80 118 59 129 62 192 61 59 -1 81 -8 172 -52 58 -27 108 -48 111
-45 6 6 -18 75 -46 133 -30 61 -94 137 -132 157 -37 19 -130 25 -189 11 -23
-5 -50 -11 -59 -13 -9 -2 -52 -14 -95 -26 -116 -33 -195 -46 -266 -44 -116 3
-160 42 -158 141 0 30 2 58 5 62 2 4 7 23 10 42 3 19 10 60 16 90 17 88 11
178 -17 225 -32 56 -34 58 -73 87 -66 48 -135 68 -255 74 -64 3 -90 0 -131
-16z"/>
<path d="M4856 3559 c-85 -32 -161 -91 -192 -150 -19 -37 -25 -122 -12 -187 4
-26 11 -58 13 -72 2 -14 8 -45 13 -70 19 -102 3 -174 -47 -207 -36 -23 -166
-24 -261 -2 -92 21 -190 48 -200 54 -12 8 -111 19 -153 18 -114 -4 -192 -75
-258 -235 -33 -81 -38 -108 -14 -88 8 7 15 9 15 5 0 -4 6 -3 13 2 31 25 132
74 180 87 28 9 72 14 97 12 43 -3 131 -35 175 -62 36 -23 156 -65 204 -70 25
-3 56 -7 67 -8 42 -5 135 13 179 34 40 19 101 71 130 111 64 88 87 263 55 422
-23 119 21 212 123 257 65 29 146 26 209 -8 60 -32 83 -65 80 -117 -2 -22 -3
-56 -4 -75 -3 -49 10 -148 23 -171 20 -38 61 8 73 84 3 19 -1 30 -13 37 -31
16 -32 46 -2 61 53 27 54 30 22 63 -17 17 -44 59 -60 92 -37 77 -93 134 -168
170 -50 25 -70 29 -148 30 -64 1 -104 -4 -139 -17z"/>
<path d="M900 3552 c-26 -4 -50 -19 -50 -32 0 -4 14 -26 31 -50 23 -31 34 -39
42 -31 6 6 18 11 27 11 9 0 26 11 39 23 21 23 21 25 4 44 -23 25 -61 40 -93
35z"/>
<path d="M4433 3545 c-17 -7 -36 -22 -42 -33 -12 -23 -6 -30 52 -57 36 -17 38
-17 58 1 12 11 28 31 35 47 15 27 14 28 -20 42 -42 18 -43 18 -83 0z"/>
<path d="M998 3373 c-182 -55 -209 -337 -40 -422 63 -31 162 -19 206 25 26 25
18 33 -21 22 -56 -15 -121 -5 -150 24 -19 19 -25 38 -28 78 -5 88 19 109 135
116 89 6 94 15 42 70 -11 12 -30 40 -41 62 -23 45 -31 47 -103 25z"/>
<path d="M4295 3352 c-11 -20 -34 -53 -52 -72 -48 -52 -44 -60 33 -60 77 0
123 -19 145 -58 22 -39 10 -105 -24 -140 -25 -25 -34 -27 -107 -27 -84 0 -90
-8 -27 -39 129 -60 258 12 285 161 23 127 -67 250 -194 266 -38 6 -41 4 -59
-31z"/>
<path d="M215 2933 c-134 -53 -200 -191 -159 -332 19 -65 68 -141 92 -141 20
0 172 72 172 81 0 4 -22 21 -48 40 -71 49 -87 74 -87 139 0 45 5 62 25 87 34
41 56 54 116 69 54 12 97 2 136 -33 10 -9 18 -11 18 -5 0 25 -23 59 -55 81
-45 30 -151 37 -210 14z"/>
<path d="M5015 2936 c-52 -19 -74 -36 -91 -67 -14 -29 -11 -56 4 -33 13 20 71
44 107 44 20 0 52 -7 72 -15 41 -18 103 -79 104 -104 0 -9 2 -25 4 -35 5 -25
-20 -84 -48 -114 -12 -13 -39 -33 -59 -43 -21 -11 -38 -21 -38 -23 0 -7 170
-86 183 -86 27 1 84 104 95 173 31 198 -155 368 -333 303z"/>
<path d="M3899 2465 c-78 -19 -171 -100 -250 -216 -53 -79 -91 -169 -71 -169
6 0 45 20 86 45 140 83 264 109 371 77 28 -8 97 -38 155 -68 140 -71 175 -82
248 -79 64 2 70 5 252 101 203 108 343 112 399 13 49 -86 -1 -229 -98 -278
-47 -24 -111 -22 -206 7 -85 26 -112 31 -179 33 -214 6 -296 -122 -181 -282
11 -16 123 -112 176 -152 83 -62 182 -100 192 -73 7 18 -43 96 -63 97 -8 1
-30 1 -48 0 -32 -1 -33 1 -32 37 1 20 2 43 1 50 -1 15 -42 16 -77 0 -24 -11
-28 -10 -50 17 -28 35 -54 118 -51 160 2 29 4 30 52 31 59 1 115 -17 250 -81
125 -59 148 -66 212 -66 216 1 400 312 322 544 -31 91 -94 168 -161 199 -16 7
-28 16 -28 19 0 6 -40 18 -85 24 -30 5 -101 -20 -216 -77 -243 -118 -380 -127
-564 -36 -33 16 -62 32 -65 36 -3 4 -14 12 -25 18 -11 6 -41 22 -66 36 -72 40
-133 51 -200 33z"/>
<path d="M1370 2458 c-46 -8 -102 -34 -155 -74 -50 -37 -152 -83 -213 -98
-104 -24 -205 -7 -350 60 -219 102 -292 124 -329 101 -7 -5 -13 -6 -13 -2 0 3
-21 -6 -47 -20 -235 -122 -264 -439 -61 -660 107 -118 219 -125 424 -29 151
71 206 88 270 85 37 -2 36 -68 -3 -152 -17 -38 -36 -69 -42 -69 -5 0 -22 5
-37 10 -15 6 -40 8 -55 5 -24 -6 -27 -9 -19 -30 5 -12 6 -33 3 -45 -5 -19 -11
-21 -43 -16 -38 6 -49 -1 -92 -63 -19 -26 -9 -51 19 -51 68 0 334 205 379 292
34 65 11 155 -49 195 -39 27 -73 34 -157 33 -57 0 -88 -5 -163 -25 -9 -3 -25
-7 -36 -9 -10 -2 -34 -9 -52 -14 -61 -16 -135 -8 -171 20 -72 55 -115 203 -79
271 31 58 134 81 239 52 60 -16 170 -62 202 -85 14 -10 54 -33 89 -50 52 -27
79 -34 138 -36 72 -3 76 -2 179 51 141 72 196 91 276 94 101 4 182 -22 313
-98 38 -23 73 -41 76 -41 21 0 -46 141 -107 227 -95 133 -212 193 -334 171z"/>
<path d="M500 2120 c-28 -7 -32 -23 -13 -62 20 -42 54 -46 140 -17 21 8 40 14
42 16 1 1 -5 10 -15 21 -34 33 -108 54 -154 42z"/>
<path d="M4830 2122 c-36 -10 -100 -45 -100 -53 0 -17 83 -47 120 -44 39 3 70
35 70 71 0 13 -3 25 -7 25 -29 4 -70 5 -83 1z"/>
<path d="M1258 2059 c-54 -40 -79 -104 -65 -169 11 -55 107 -200 132 -200 4 0
43 35 86 78 l78 78 -52 18 c-93 33 -122 76 -126 194 -1 27 -18 28 -53 1z"/>
<path d="M4089 2078 c0 -2 -3 -25 -5 -53 -8 -83 -30 -114 -107 -153 l-68 -33
76 -75 c42 -41 80 -74 85 -74 19 0 82 84 114 152 44 92 8 209 -71 233 -13 3
-23 5 -24 3z"/>
<path d="M1758 1865 c-2 -2 -17 -5 -35 -8 -107 -17 -247 -97 -335 -191 -29
-32 -73 -117 -84 -163 -13 -59 -16 -189 -4 -243 19 -87 77 -195 139 -259 92
-95 192 -134 451 -176 52 -9 109 -18 125 -21 90 -15 217 -72 257 -116 139
-149 117 -376 -42 -439 -19 -7 -63 -13 -98 -13 -51 1 -75 7 -129 35 -36 19
-77 48 -90 66 l-24 31 30 35 c17 19 31 41 31 50 0 8 -18 22 -41 31 -41 17 -42
22 -12 58 18 20 3 83 -27 116 -27 29 -38 28 -46 -4 -15 -59 0 -269 24 -329 34
-88 109 -165 202 -209 57 -27 76 -31 150 -31 64 0 95 5 125 20 55 26 175 149
205 210 22 44 25 62 24 160 0 137 -21 207 -88 305 -79 116 -151 158 -411 241
-291 93 -352 134 -425 282 -66 134 -62 228 12 312 79 90 187 123 436 134 12 1
22 4 22 9 0 15 -96 70 -150 85 -48 14 -184 29 -192 22z"/>
<path d="M3495 1855 c-88 -17 -213 -81 -194 -100 3 -2 48 -6 100 -9 53 -3 102
-8 110 -10 8 -3 27 -8 42 -10 41 -7 147 -59 178 -87 45 -40 82 -124 81 -182
-1 -90 -58 -212 -129 -279 -36 -33 -125 -86 -161 -94 -15 -4 -31 -10 -37 -14
-8 -5 -94 -32 -115 -35 -37 -6 -200 -65 -253 -91 -133 -68 -242 -209 -277
-362 -24 -103 5 -252 62 -326 76 -98 183 -173 257 -180 98 -9 222 42 303 126
92 93 102 124 112 333 8 147 -8 177 -58 112 -29 -38 -34 -88 -11 -107 18 -15
20 -39 3 -45 -63 -22 -66 -24 -61 -44 3 -11 16 -32 29 -47 30 -32 25 -52 -23
-95 -85 -74 -213 -95 -303 -49 -87 44 -121 110 -116 223 4 84 27 135 95 204
34 35 125 91 161 98 42 9 79 17 95 20 11 2 22 4 25 5 3 1 8 2 11 2 14 -2 200
31 254 44 134 34 224 81 295 154 42 44 94 131 105 176 47 197 39 299 -33 424
-59 103 -199 205 -328 239 -62 16 -152 19 -219 6z"/>
<path d="M1161 1671 c-12 -16 -21 -35 -21 -41 0 -7 -20 -32 -45 -57 -46 -45
-57 -79 -30 -90 9 -3 41 -6 72 -7 l57 -1 18 70 c22 86 20 123 -8 142 -20 13
-24 12 -43 -16z"/>
<path d="M4181 1676 l-23 -25 18 -81 c20 -89 30 -100 84 -96 19 2 43 4 53 5
10 0 22 11 27 24 7 18 3 27 -26 52 -19 17 -47 55 -63 85 -16 30 -33 56 -38 57
-5 2 -20 -8 -32 -21z"/>
<path d="M2216 1522 c-3 -5 1 -31 7 -58 7 -27 12 -53 12 -59 -5 -53 -54 -106
-145 -157 -100 -56 -160 -92 -160 -98 0 -3 19 -11 43 -18 23 -7 92 -28 152
-46 154 -47 151 -47 172 -22 36 40 104 154 122 203 36 100 5 166 -107 226 -59
31 -89 40 -96 29z"/>
<path d="M3121 1510 c-65 -23 -112 -58 -140 -104 -40 -65 -14 -166 78 -293 24
-34 50 -64 56 -67 7 -2 62 11 121 30 60 19 115 36 124 38 18 4 45 13 85 30
l29 13 -104 54 c-125 63 -197 125 -206 177 -4 20 -1 57 6 84 7 27 11 51 9 53
-2 2 -28 -5 -58 -15z"/>
<path d="M872 1300 c-63 -21 -114 -67 -148 -132 -13 -27 -25 -51 -26 -55 -1
-5 -7 -23 -13 -41 -13 -37 1 -124 30 -185 20 -42 93 -113 133 -128 15 -6 68
-22 118 -34 101 -26 140 -43 168 -74 11 -12 27 -21 38 -21 18 0 21 7 21 43 0
19 41 25 52 7 9 -14 42 -12 74 5 29 14 47 42 35 54 -3 3 -67 6 -142 7 -76 0
-155 6 -178 12 -118 34 -207 195 -152 275 28 39 55 51 125 53 73 3 131 -11
230 -54 39 -18 76 -32 82 -32 6 0 -5 29 -25 64 -32 60 -49 101 -59 151 -3 11
-7 32 -10 47 -9 39 -50 51 -183 53 -89 2 -130 -2 -170 -15z"/>
<path d="M4288 1315 c-2 -1 -25 -5 -52 -8 -27 -4 -53 -10 -57 -14 -4 -4 -12
-33 -18 -64 -5 -31 -23 -85 -39 -120 -43 -93 -48 -110 -25 -102 10 3 23 9 28
13 6 4 48 20 95 36 99 32 209 40 252 18 52 -27 69 -112 39 -187 -15 -39 -75
-96 -120 -114 -99 -42 -138 -45 -289 -22 -35 6 -62 -3 -62 -19 0 -44 66 -68
128 -47 19 6 25 3 35 -24 14 -37 29 -39 59 -7 21 23 156 76 192 76 8 0 41 10
73 22 66 24 121 77 161 153 64 123 0 309 -130 381 -48 26 -63 29 -160 30 -58
1 -108 1 -110 -1z"/>
<path d="M2116 643 c-23 -23 -25 -31 -22 -90 3 -36 1 -76 -4 -89 -8 -21 -6
-24 29 -35 53 -16 88 -5 112 34 27 44 20 108 -18 155 -41 50 -66 57 -97 25z"/>
<path d="M3186 628 c-34 -45 -49 -130 -28 -160 26 -38 45 -48 85 -46 40 2 74
29 62 49 -12 19 -13 69 -3 106 8 30 6 38 -13 59 -33 35 -72 32 -103 -8z"/>
</g>
</svg>
