<?xml version="1.0" standalone="no"?>
<!DOCTYPE svg PUBLIC "-//W3C//DTD SVG 20010904//EN"
 "http://www.w3.org/TR/2001/REC-SVG-20010904/DTD/svg10.dtd">
<svg version="1.0" xmlns="http://www.w3.org/2000/svg"
 width="150.000000pt" height="150.000000pt" viewBox="0 0 150.000000 150.000000"
 preserveAspectRatio="xMidYMid meet">
<metadata>
Created by potrace 1.14, written by Peter Selinger 2001-2017
</metadata>
<g transform="translate(0.000000,150.000000) scale(0.100000,-0.100000)"
fill="#000000" stroke="none">
<path d="M556 1469 c-10 -6 -27 -20 -38 -31 -14 -14 -27 -18 -44 -14 -13 4
-24 2 -24 -3 0 -5 -8 -7 -19 -4 -10 3 -22 0 -25 -6 -8 -12 -2 -13 74 -11 30 1
69 8 88 15 30 13 34 13 52 -5 11 -11 21 -26 21 -32 1 -7 3 -23 4 -36 3 -34
-28 -49 -119 -56 -90 -6 -121 -22 -141 -70 -26 -61 12 -166 66 -185 31 -11 30
-11 82 48 33 37 69 40 127 11 55 -28 59 -25 20 15 -44 45 -89 58 -135 39 -48
-20 -62 -18 -81 11 -28 44 5 67 111 79 71 8 105 30 124 79 37 98 -60 203 -143
156z"/>
<path d="M839 1457 c-53 -45 -64 -107 -29 -164 24 -41 43 -50 115 -58 84 -10
110 -24 110 -59 0 -40 -25 -54 -67 -37 -33 13 -47 15 -80 12 -19 -1 -102 -71
-94 -78 2 -2 21 5 42 16 62 34 94 28 142 -24 43 -47 56 -49 96 -16 40 34 58
119 36 175 -15 41 -50 56 -141 61 -115 7 -141 34 -103 107 15 28 18 30 52 23
105 -21 225 -21 170 0 -10 4 -22 4 -28 0 -5 -3 -10 -1 -10 5 0 8 -9 10 -23 6
-17 -4 -35 3 -63 24 -47 36 -89 38 -125 7z"/>
<path d="M326 1332 c-3 -5 -5 -33 -5 -61 2 -75 -28 -103 -67 -60 -29 32 -51
41 -74 29 -47 -25 -65 -121 -34 -186 18 -37 28 -41 87 -30 34 6 68 -21 91 -73
20 -44 73 -77 106 -66 20 6 70 60 70 75 0 5 -16 2 -36 -6 -54 -23 -84 -7 -109
59 l-20 52 -58 1 c-79 0 -102 24 -98 101 2 34 36 48 58 25 28 -30 61 -34 85
-10 11 11 18 28 15 38 -3 10 1 28 9 38 12 17 12 21 -2 26 -12 5 -13 10 -6 19
6 7 7 19 3 26 -5 8 -11 9 -15 3z"/>
<path d="M1156 1321 c-4 -5 -3 -16 0 -25 4 -10 1 -16 -7 -16 -10 0 -10 -3 -1
-12 7 -7 12 -26 12 -44 0 -56 50 -77 94 -39 34 30 31 29 50 9 9 -8 16 -32 16
-53 0 -55 -26 -75 -94 -72 -59 2 -67 -4 -85 -60 -6 -20 -21 -45 -32 -55 -19
-17 -23 -17 -65 -2 -24 8 -44 13 -44 11 0 -3 8 -18 17 -34 45 -76 131 -52 172
49 16 37 45 50 94 42 32 -6 42 -3 58 13 42 46 33 171 -16 203 -26 17 -47 11
-79 -25 -42 -47 -77 -10 -69 72 5 43 -6 63 -21 38z"/>
<path d="M718 1189 c-21 -11 -38 -22 -38 -25 0 -3 12 -16 28 -30 25 -24 27
-24 30 -8 6 30 43 64 71 64 21 0 23 2 11 10 -23 15 -61 11 -102 -11z"/>
<path d="M227 1121 c3 -12 10 -22 17 -23 29 -4 116 -3 116 2 -1 16 -20 25 -55
26 -22 1 -50 4 -62 8 -19 7 -21 5 -16 -13z"/>
<path d="M1238 1129 c-10 -5 -35 -9 -55 -7 -28 2 -38 -1 -41 -13 -3 -14 6 -16
59 -14 58 3 85 17 73 37 -7 10 -15 10 -36 -3z"/>
<path d="M583 1030 c-38 -23 -55 -51 -61 -102 -4 -35 -2 -38 22 -38 24 0 113
-21 149 -35 17 -7 24 -25 8 -25 -4 0 -6 -11 -3 -25 2 -14 1 -25 -4 -24 -5 2
-24 -1 -43 -5 -24 -6 -44 -3 -72 10 l-39 17 20 22 c27 29 25 35 -10 35 -23 0
-33 -6 -40 -25 -23 -60 33 -239 90 -290 12 -11 30 -36 40 -56 26 -49 40 -58
96 -63 67 -5 99 9 119 51 9 19 32 52 51 73 58 64 111 259 81 298 -11 13 -53
16 -61 4 -3 -5 4 -16 16 -26 l21 -18 -32 -20 c-25 -16 -41 -19 -77 -13 -48 7
-64 26 -44 50 11 13 10 14 -4 9 -12 -5 -15 -2 -10 10 5 14 11 17 27 16 1 0 25
7 54 15 29 9 64 13 78 9 23 -6 25 -4 25 27 0 65 -70 139 -130 139 -14 0 -43
-12 -65 -27 l-39 -27 -48 27 c-57 32 -73 33 -115 7z m221 -389 c11 -16 -52
-31 -79 -19 -14 6 -25 15 -25 20 0 11 97 10 104 -1z m11 -76 c26 -7 27 -9 10
-16 -25 -10 -139 -11 -149 -2 -10 10 41 28 78 27 17 0 44 -4 61 -9z m-48 -49
c15 2 34 7 41 9 15 5 16 -11 1 -21 -33 -20 -138 -7 -124 16 3 6 15 6 30 0 13
-5 36 -7 52 -4z"/>
<path d="M64 982 c-22 -15 -65 -80 -56 -86 5 -3 7 -17 4 -31 -2 -15 0 -25 7
-25 11 0 12 4 15 57 3 39 4 41 43 49 24 5 36 1 53 -16 19 -19 21 -30 17 -65
-18 -126 62 -180 185 -125 44 19 50 20 84 5 20 -8 39 -13 41 -11 3 2 -3 18
-12 36 -23 44 -51 52 -120 34 -31 -8 -71 -14 -88 -12 l-32 3 -1 65 c-1 96 -1
98 -34 115 -30 16 -88 20 -106 7z"/>
<path d="M245 980 c-10 -17 12 -37 25 -24 8 8 6 15 -4 23 -10 9 -16 9 -21 1z"/>
<path d="M1329 975 c-36 -19 -41 -38 -33 -112 6 -61 6 -62 -21 -69 -15 -4 -53
-1 -84 7 -31 7 -62 13 -68 12 -7 0 -20 -1 -28 -2 -16 -1 -55 -57 -55 -78 0 -9
10 -7 31 6 31 19 71 17 115 -7 30 -16 75 -20 107 -9 39 13 60 60 61 137 1 59
3 65 29 80 24 13 30 13 54 0 22 -12 27 -23 28 -53 0 -36 20 -54 20 -19 1 9 4
22 8 28 3 6 -11 30 -32 53 -42 45 -82 53 -132 26z"/>
<path d="M1220 971 c0 -11 26 -22 34 -14 12 12 5 23 -14 23 -11 0 -20 -4 -20
-9z"/>
<path d="M261 923 c-32 -26 -36 -68 -9 -93 24 -22 45 -25 68 -10 11 7 7 10
-18 10 -30 0 -33 2 -30 28 2 21 9 28 30 30 27 3 27 4 12 28 -19 29 -25 29 -53
7z"/>
<path d="M1185 917 c-15 -21 -14 -22 12 -27 37 -7 41 -53 5 -58 -26 -4 -20
-22 7 -22 25 0 54 34 54 65 0 51 -52 79 -78 42z"/>
<path d="M53 808 c-28 -13 -46 -58 -37 -92 8 -34 16 -38 51 -25 l28 11 -22 15
c-30 20 -29 49 1 68 20 13 29 14 48 5 20 -11 21 -11 8 3 -21 21 -51 27 -77 15z"/>
<path d="M1379 799 l-24 -20 23 11 c19 9 28 8 48 -5 29 -19 31 -38 4 -65 l-20
-20 25 -10 c35 -13 32 -15 45 24 13 41 -1 79 -37 95 -32 15 -37 14 -64 -10z"/>
<path d="M1073 679 c-26 -10 -89 -92 -74 -97 6 -2 21 4 33 12 32 23 81 20 136
-7 54 -27 67 -26 140 10 43 21 59 24 80 17 34 -12 39 -43 14 -74 -18 -22 -23
-23 -73 -14 -67 12 -99 5 -110 -23 -6 -15 -2 -29 12 -47 22 -28 87 -71 96 -63
8 9 -7 27 -23 27 -8 0 -14 7 -14 16 0 10 -6 14 -15 10 -8 -3 -19 3 -25 14 -25
46 -3 51 77 18 65 -27 96 -19 131 32 42 61 17 144 -48 165 -10 3 -46 -6 -79
-20 -73 -30 -100 -31 -152 -5 -63 33 -83 38 -106 29z"/>
<path d="M49 651 c-23 -24 -29 -38 -29 -75 0 -37 6 -51 34 -80 39 -42 59 -44
126 -15 59 25 84 21 71 -13 -5 -13 -17 -23 -27 -23 -11 -1 -18 -6 -17 -13 2
-7 -3 -12 -11 -12 -16 0 -31 -18 -23 -27 9 -8 74 35 96 63 42 54 -3 86 -100
70 -53 -9 -60 -8 -74 10 -19 25 -19 58 0 74 18 15 63 4 128 -29 40 -20 81 -16
114 11 22 18 104 15 136 -6 15 -10 27 -14 27 -8 0 21 -35 71 -61 86 -37 22
-65 20 -101 -5 -44 -32 -106 -36 -155 -10 -70 35 -100 36 -134 2z"/>
<path d="M133 577 c5 -15 47 -22 47 -8 0 6 -3 11 -7 12 -5 0 -16 2 -26 4 -10
2 -17 -2 -14 -8z"/>
<path d="M1327 584 c-14 -14 -7 -25 13 -22 12 2 21 8 21 13 0 12 -24 18 -34 9z"/>
<path d="M346 564 c-21 -21 -20 -47 3 -75 19 -23 19 -24 40 -5 l21 19 -26 24
c-15 13 -23 30 -20 38 7 19 1 19 -18 -1z"/>
<path d="M1130 550 c0 -10 -10 -24 -21 -31 l-21 -11 20 -21 c17 -16 24 -18 35
-8 21 17 30 60 16 77 -16 20 -29 17 -29 -6z"/>
<path d="M455 504 c-61 -21 -88 -54 -92 -116 -3 -41 1 -60 16 -85 29 -46 56
-61 146 -78 50 -9 86 -22 101 -36 52 -49 27 -137 -36 -126 -49 10 -62 19 -56
43 4 13 3 24 -2 24 -5 0 -8 9 -8 20 1 10 -3 18 -9 17 -11 -2 -12 -27 -2 -74 8
-39 56 -73 103 -73 43 0 94 57 94 105 0 81 -38 124 -138 155 -79 25 -117 55
-127 101 -13 59 31 99 108 99 22 0 28 3 20 11 -20 20 -79 27 -118 13z"/>
<path d="M949 502 l-34 -15 50 -8 c51 -8 95 -43 95 -76 0 -53 -49 -101 -125
-119 -49 -11 -104 -43 -121 -69 -40 -60 -32 -133 18 -175 44 -37 125 -16 146
37 17 42 19 96 5 100 -12 4 -18 -25 -15 -69 3 -40 -71 -60 -106 -28 -25 23
-28 47 -11 84 14 31 59 53 124 62 97 13 150 54 161 126 8 48 -1 81 -29 111
-45 48 -104 63 -158 39z"/>
<path d="M315 450 c-3 -11 -11 -20 -17 -20 -15 0 -3 -25 13 -25 18 -1 29 15
29 43 0 27 -16 29 -25 2z"/>
<path d="M1160 444 c0 -32 17 -48 38 -35 8 4 3 16 -13 36 l-24 30 -1 -31z"/>
<path d="M620 395 c0 -18 -11 -32 -41 -52 l-41 -27 33 -12 c51 -19 65 -17 84
12 25 39 26 62 3 84 -29 26 -38 25 -38 -5z"/>
<path d="M842 400 c-27 -25 -27 -36 -2 -77 21 -35 36 -38 88 -19 l34 12 -39
24 c-26 17 -39 33 -41 53 -4 32 -11 34 -40 7z"/>
<path d="M258 362 c-34 -4 -68 -46 -68 -84 0 -32 39 -78 65 -78 9 0 29 -7 45
-15 17 -9 30 -11 30 -6 0 5 8 7 19 4 10 -3 22 0 25 6 7 11 -16 15 -61 11 -47
-3 -97 81 -55 94 20 7 67 -1 92 -14 16 -9 16 -6 1 35 -16 46 -32 54 -93 47z"/>
<path d="M1151 324 c-7 -19 -11 -37 -9 -39 2 -2 23 2 47 8 38 10 44 10 57 -8
18 -24 18 -28 -5 -56 -14 -18 -29 -24 -65 -24 -41 -1 -77 -13 -48 -16 26 -3
31 -4 38 -11 4 -4 12 -4 18 1 6 5 30 14 52 20 52 14 79 50 70 94 -10 51 -32
67 -91 67 -49 0 -51 -1 -64 -36z"/>
<path d="M584 166 c-9 -23 0 -51 16 -51 10 0 15 10 15 29 0 32 -21 47 -31 22z"/>
<path d="M878 155 c-10 -22 -9 -28 3 -36 22 -14 33 -5 34 26 0 37 -22 43 -37
10z"/>
</g>
</svg>
